<?xml version="1.0" encoding="utf-8"?>
<!-- Generator: Adobe Illustrator 16.0.0, SVG Export Plug-In . SVG Version: 6.00 Build 0)  -->
<!DOCTYPE svg PUBLIC "-//W3C//DTD SVG 1.1//EN" "http://www.w3.org/Graphics/SVG/1.1/DTD/svg11.dtd">
<svg version="1.1" xmlns="http://www.w3.org/2000/svg" xmlns:xlink="http://www.w3.org/1999/xlink" x="0px" y="0px" width="900px"
	 height="1600px" viewBox="0 0 900 1600" enable-background="new 0 0 900 1600" xml:space="preserve">
<g id="Layer_1">
	<g>
		<path d="M836,20c24.262,0,44,19.738,44,44v1472c0,24.262-19.738,44-44,44H64c-24.262,0-44-19.738-44-44V64
			c0-24.262,19.738-44,44-44H836 M836,0H64C28.654,0,0,28.654,0,64v1472c0,35.346,28.654,64,64,64h772c35.347,0,64-28.654,64-64V64
			C900,28.654,871.347,0,836,0L836,0z"/>
	</g>
</g>
<g id="Layer_2" display="none">
	<text transform="matrix(1 0 0 1 269.3848 997)" display="inline" font-family="'Hack-Regular'" font-size="300">ma</text>
</g>
<g id="Layer_3">
	<text transform="matrix(1 0 0 1 269.3848 997)" font-family="'Hack-Regular'" font-size="300">mo</text>
</g>
<g id="Layer_4" display="none">
	<text transform="matrix(1 0 0 1 269.3848 997)" display="inline" font-family="'Hack-Regular'" font-size="300">ko</text>
</g>
<g id="Layer_5" display="none">
	<text transform="matrix(1 0 0 1 269.3848 997)" display="inline" font-family="'Hack-Regular'" font-size="300">do</text>
</g>
<g id="Layer_6" display="none">
	<text transform="matrix(1 0 0 1 269.3848 997)" display="inline" font-family="'Hack-Regular'" font-size="300">??</text>
</g>
</svg>
