<?xml version="1.0" encoding="utf-8"?>
<!-- Generator: Adobe Illustrator 16.0.0, SVG Export Plug-In . SVG Version: 6.00 Build 0)  -->
<!DOCTYPE svg PUBLIC "-//W3C//DTD SVG 1.1//EN" "http://www.w3.org/Graphics/SVG/1.1/DTD/svg11.dtd">
<svg version="1.1" id="Layer_1" xmlns="http://www.w3.org/2000/svg" xmlns:xlink="http://www.w3.org/1999/xlink" x="0px" y="0px"
	 width="900px" height="1600px" viewBox="0 0 900 1600" enable-background="new 0 0 900 1600" xml:space="preserve">
<path d="M836,20c24.262,0,44,19.738,44,44v1472c0,24.262-19.738,44-44,44H64c-24.263,0-44-19.738-44-44V64c0-24.262,19.737-44,44-44
	H836 M836,0H64C28.654,0,0,28.654,0,64v1472c0,35.346,28.653,64,64,64h772c35.347,0,64-28.654,64-64V64C900,28.654,871.347,0,836,0
	L836,0z"/>
<path fill="#AF4BB5" d="M64,1590c-29.776,0-54-24.225-54-54V64c0-29.776,24.224-54,54-54h772c29.774,0,54,24.224,54,54v1472
	c0,29.775-24.226,54-54,54H64z"/>
</svg>
